<svg width="500" height="500" viewBox="0 0 500 500" fill="none" xmlns="http://www.w3.org/2000/svg">
<mask id="mask0_30_2" style="mask-type:luminance" maskUnits="userSpaceOnUse" x="35" y="171" width="430" height="158">
<path d="M35 171H464.33V328.22H35V171Z" fill="white"/>
</mask>
<g mask="url(#mask0_30_2)">
<mask id="mask1_30_2" style="mask-type:luminance" maskUnits="userSpaceOnUse" x="32" y="170" width="440" height="179">
<path d="M471.593 324.086L41.4483 348.64L32.6614 194.692L462.806 170.15L471.593 324.086Z" fill="white"/>
</mask>
<g mask="url(#mask1_30_2)">
<mask id="mask2_30_2" style="mask-type:luminance" maskUnits="userSpaceOnUse" x="32" y="170" width="440" height="179">
<path d="M41.6607 348.628L471.805 324.074L463.018 170.138L32.8738 194.68L41.6607 348.628Z" fill="white"/>
</mask>
<g mask="url(#mask2_30_2)">
<path d="M41.0585 213.423C34.7636 218.241 36.4524 223.426 38.5074 228.339C44.1173 241.98 51.9476 254.086 63.3918 263.723C99.8622 294.347 142.061 313.185 188.428 322.314C235.976 331.68 282.072 326.401 325.688 304.611C346.202 294.347 366.186 282.962 387.125 271.695C386.476 274.081 385.932 277.104 384.87 279.986C377.795 299.627 378.764 304.103 394.247 318.393C397.696 321.606 401.723 324.169 406.494 327.806C408.715 323.732 410.38 320.85 411.88 317.862C428.06 285.868 443.685 253.554 460.775 222.009C464.896 214.356 464.164 208.675 460.822 202.569C454.066 190.298 442.929 181.877 431.426 174.744C427.399 172.24 420.218 173.539 414.809 174.626C375.138 182.787 335.089 187.216 294.627 186.294C282.025 185.987 269.471 183.779 255.771 182.35C254.507 186.436 257.235 190.735 259.822 194.373C271.998 211.403 286.407 225.363 308.846 227.206C319.452 228.068 330.022 229.036 340.616 229.792C345.329 230.134 350.088 229.993 355.922 230.111C335.774 254.676 242.661 282.419 194.428 278.982C135.777 274.801 84.9103 251.83 41.0585 213.423Z" fill="#FF3131"/>
</g>
</g>
</g>
</svg>
